<svg width="36" height="20" viewBox="0 0 36 20" fill="none" xmlns="http://www.w3.org/2000/svg">
<path d="M32.6558 6.6684H19.4225C17.8392 2.18506 13.1558 -0.831604 7.95584 0.201729C4.13917 0.968395 1.03917 4.03506 0.239174 7.83506C-1.12749 14.3017 3.77251 20.0017 10.0058 20.0017C14.3558 20.0017 18.0558 17.2184 19.4225 13.3351H20.0058L22.1558 15.4851C22.8058 16.1351 23.8558 16.1351 24.5058 15.4851L26.6725 13.3351L28.8225 15.4851C29.4725 16.1351 30.5392 16.1351 31.1892 15.4851L35.5058 11.1351C36.1558 10.4851 36.1558 9.4184 35.4892 8.7684L33.8392 7.15173C33.5058 6.83506 33.0892 6.6684 32.6558 6.6684ZM10.0058 15.0017C7.25584 15.0017 5.00584 12.7517 5.00584 10.0017C5.00584 7.25173 7.25584 5.00173 10.0058 5.00173C12.7558 5.00173 15.0058 7.25173 15.0058 10.0017C15.0058 12.7517 12.7558 15.0017 10.0058 15.0017Z" fill="#A4A4A4"/>
</svg>
