<svg width="28" height="34" viewBox="0 0 28 34" fill="none" xmlns="http://www.w3.org/2000/svg">
<path d="M18.3165 1.31667C17.6832 0.683332 16.8332 0.333332 15.9498 0.333332H3.99984C2.1665 0.333332 0.666504 1.83333 0.666504 3.66667V30.3333C0.666504 32.1667 2.14984 33.6667 3.98317 33.6667H23.9998C25.8332 33.6667 27.3332 32.1667 27.3332 30.3333V11.7167C27.3332 10.8333 26.9832 9.98333 26.3498 9.36666L18.3165 1.31667ZM18.9998 27H8.99984C8.08317 27 7.33317 26.25 7.33317 25.3333C7.33317 24.4167 8.08317 23.6667 8.99984 23.6667H18.9998C19.9165 23.6667 20.6665 24.4167 20.6665 25.3333C20.6665 26.25 19.9165 27 18.9998 27ZM18.9998 20.3333H8.99984C8.08317 20.3333 7.33317 19.5833 7.33317 18.6667C7.33317 17.75 8.08317 17 8.99984 17H18.9998C19.9165 17 20.6665 17.75 20.6665 18.6667C20.6665 19.5833 19.9165 20.3333 18.9998 20.3333ZM15.6665 10.3333V2.83333L24.8332 12H17.3332C16.4165 12 15.6665 11.25 15.6665 10.3333Z" fill="#A4A4A4"/>
</svg>
