<svg width="28" height="34" viewBox="0 0 28 34" fill="none" xmlns="http://www.w3.org/2000/svg">
<path d="M3.99984 19.1667L6.0165 20.0667C7.47368 20.7284 9.04822 21.0929 10.648 21.1387C12.2477 21.1844 13.8405 20.9107 15.3332 20.3333C16.4629 19.883 17.6752 19.6769 18.8903 19.7286C20.1054 19.7803 21.2958 20.0886 22.3832 20.6333L27.3832 23.1V5.96667L23.9165 4.3C22.4062 3.54729 20.7537 3.12252 19.0676 3.05358C17.3815 2.98464 15.6999 3.27309 14.1332 3.9C13.0426 4.32185 11.8779 4.51865 10.7093 4.47855C9.54069 4.43845 8.39226 4.16228 7.33317 3.66667L3.99984 2.18333V0.333332H0.666504V33.6667H3.99984V19.1667Z" fill="#A4A4A4"/>
</svg>
